<!-- Generator: Gravit.io -->
<svg version="1.0"
  baseProfile="full"
  xmlns="http://www.w3.org/2000/svg"
  xmlns:xlink="http://www.w3.org/1999/xlink"
  style="isolation:isolate"
  viewBox="0 0 158.564 183.968"
  width="158.564px" height="183.968px">
  <defs>
    <clipPath id="_clipPath_u1XV5XLIhRUWggzbODsEQEvHnK34KXgU">
      <rect width="158.564" height="183.968"/>
    </clipPath>
  </defs>
  <g clip-path="url(#_clipPath_u1XV5XLIhRUWggzbODsEQEvHnK34KXgU)">
    <path d=" M 37 5 C -19.864 42.108 12.636 74.108 0 118 C 43.136 63.608 3.636 47.108 37 5 Z " fill="rgb(0,0,0)"/>
    <path d=" M 54.931 146 C 65.027 87.608 9.027 65.108 47.931 24 C 35.027 78.108 92.027 77.608 54.931 146 Z " fill="rgb(0,0,0)"/>
    <path d=" M 60 65.066 C 100.457 108.365 65.96 157.884 121.033 170.934 C 80.576 132.757 128.52 101.925 60 65.066 Z " fill="rgb(0,0,0)"/>
    <path d=" M 76.375 0 C 103.971 84.108 150.471 64.108 123.375 123 C 132.471 84.108 39.471 52.108 76.375 0 Z " fill="rgb(0,0,0)"/>
    <path d=" M 139.505 65.066 C 181.763 118.215 140.829 138.331 138.977 183.968 C 115.198 118.748 157.886 115.548 139.505 65.066 Z " fill="rgb(0,0,0)"/>
  </g>
</svg>
